<?xml version="1.0" standalone="no"?><!DOCTYPE svg PUBLIC "-//W3C//DTD SVG 1.1//EN" "http://www.w3.org/Graphics/SVG/1.1/DTD/svg11.dtd"><svg t="1594903662861" class="icon" viewBox="0 0 1024 1024" version="1.1" xmlns="http://www.w3.org/2000/svg" p-id="1141" xmlns:xlink="http://www.w3.org/1999/xlink" width="200" height="200"><defs><style type="text/css"></style></defs><path d="M128 416a32 32 0 0 0 32-32V160h224a32 32 0 0 0 0-64H160a64.07 64.07 0 0 0-64 64v224a32 32 0 0 0 32 32z m256 448H160V640a32 32 0 0 0-64 0v224a64.07 64.07 0 0 0 64 64h224a32 32 0 0 0 0-64z m512-256a32 32 0 0 0-32 32v224H640a32 32 0 0 0 0 64h224a64.07 64.07 0 0 0 64-64V640a32 32 0 0 0-32-32zM864 96H640a32 32 0 0 0 0 64h224v224a32 32 0 0 0 64 0V160a64.07 64.07 0 0 0-64-64z m32 384H128a32 32 0 0 0 0 64h768a32 32 0 0 0 0-64z" p-id="1142" fill="#AA0100"></path></svg>